<?xml version="1.0" ?><!DOCTYPE svg  PUBLIC '-//W3C//DTD SVG 1.1//EN'  'http://www.w3.org/Graphics/SVG/1.1/DTD/svg11.dtd'><svg enable-background="new 0 0 48 48" height="48px" version="1.1" viewBox="0 0 48 48" width="48px" xml:space="preserve" xmlns="http://www.w3.org/2000/svg" xmlns:xlink="http://www.w3.org/1999/xlink"><g id="Layer_3"><g><path d="M40.866,2.192c-0.764-0.228-1.529-0.335-2.292-0.378l-0.601,1.997l-0.532,1.77l-3.286,10.92l-0.514,1.707    l-0.513-1.707l-3.286-10.92l-0.532-1.77L28.71,1.814c-0.763,0.043-1.528,0.15-2.292,0.378c-5.251,1.583-8.229,7.122-6.648,12.374    c1.352,4.493,5.599,7.291,10.082,7.03l1.386,4.603l-5.95,19.77l0.179,0.054c4.238,1.06,5.506-2.959,5.506-2.959l2.67-8.87    l2.671,8.87c0,0,1.268,4.019,5.508,2.959l0.177-0.054l-5.95-19.77l1.386-4.603c4.483,0.261,8.73-2.538,10.081-7.03    C49.095,9.314,46.117,3.775,40.866,2.192z M23.383,13.479c-0.742-2.475,0.151-5.045,2.049-6.572l3.286,10.921    C26.294,17.606,24.13,15.953,23.383,13.479z M43.901,13.479c-0.748,2.475-2.911,4.127-5.336,4.349l3.285-10.921    C43.749,8.434,44.644,11.004,43.901,13.479z" fill="#241F20"/><polygon fill="#241F20" points="2.173,1.799 0.062,1.799 0.062,46.201 2.173,46.201 4.283,46.201 14.814,46.201 14.814,40.967     4.283,40.967 4.283,38.795 8.702,38.795 12.703,38.795 14.814,38.795 14.814,34.571 12.703,34.571 8.702,34.571 4.283,34.571     4.283,32.421 8.702,32.421 12.703,32.421 14.814,32.421 14.814,28.2 12.703,28.2 8.702,28.2 4.283,28.2 4.283,26.043     8.702,26.043 12.703,26.043 14.814,26.043 14.814,21.824 12.703,21.824 8.702,21.824 4.283,21.824 4.283,19.669 8.702,19.669     12.703,19.669 14.814,19.669 14.814,15.449 12.703,15.449 8.702,15.449 4.283,15.449 4.283,13.426 8.702,13.426 12.703,13.426     14.814,13.426 14.814,9.206 12.703,9.206 8.702,9.206 4.283,9.206 4.283,7.031 14.814,7.031 14.814,1.799 4.283,1.799   "/></g></g></svg>